<?xml version="1.0" encoding="UTF-8"?>
<svg width="72px" height="60px" viewBox="0 0 72 60" version="1.1" xmlns="http://www.w3.org/2000/svg" xmlns:xlink="http://www.w3.org/1999/xlink">
    <!-- Generator: Sketch 43 (38999) - http://www.bohemiancoding.com/sketch -->
    <title>微信好友</title>
    <desc>Created with Sketch.</desc>
    <defs></defs>
    <g id="Symbols" stroke="none" stroke-width="1" fill="none" fill-rule="evenodd">
        <g id="actionsheet/share" transform="translate(-486.000000, -140.000000)" fill="#4CBF00">
            <g id="微信好友">
                <path d="M536.033898,160.816327 C523.901579,160.816327 514.067797,169.210613 514.067797,179.183673 C514.067797,189.919661 523.901579,198.313947 536.033898,198.77551 C539.466445,198.313947 542.702463,197.62166 545.79661,196.326531 L551.898305,200 L550.677966,193.877551 C555.021546,190.337762 558,185.252309 558,179.183673 C558,169.210613 548.164997,160.816327 536.033898,160.816327 Z M528.711864,175.510204 C526.41721,175.510204 525.050847,174.139328 525.050847,171.836735 C525.050847,170.758631 526.41721,169.387755 528.711864,169.387755 C529.787484,169.387755 531.152542,170.758631 531.152542,171.836735 C531.152542,174.139328 529.787484,175.510204 528.711864,175.510204 L528.711864,175.510204 Z M543.355932,175.510204 C542.281325,175.510204 540.915254,174.139328 540.915254,171.836735 C540.915254,170.758631 542.281325,169.387755 543.355932,169.387755 C545.650879,169.387755 547.016949,170.758631 547.016949,171.836735 C547.016949,174.139328 545.650879,175.510204 543.355932,175.510204 L543.355932,175.510204 Z M536.033898,158.367347 C536.369231,158.773578 536.809893,158.810847 537.254237,158.367347 C535.426534,148.184246 524.735271,140 511.627119,140 C497.5419,140 486,149.875011 486,162.040816 C486,169.017551 489.77938,175.216608 495.762712,179.183673 L493.322034,187.755102 L501.864407,182.857143 C505.260232,183.551172 508.440607,184.111448 511.627119,184.081633 C512.157386,184.111448 512.524399,184.077906 512.847458,184.081633 C512.449524,182.496463 512.185617,180.867813 511.627119,179.183673 C512.185617,167.910665 522.810598,158.773578 536.033898,158.367347 L536.033898,158.367347 Z M521.389831,151.020408 C523.684186,151.020408 525.050847,152.39102 525.050847,153.469388 C525.050847,155.772245 523.684186,157.142857 521.389831,157.142857 C520.314678,157.142857 518.949153,155.772245 518.949153,153.469388 C518.949153,152.39102 520.314678,151.020408 521.389831,151.020408 L521.389831,151.020408 Z M498.20339,153.469388 C498.20339,152.39102 499.568915,151.020408 500.644068,151.020408 C502.939559,151.020408 504.305085,152.39102 504.305085,153.469388 C504.305085,155.772245 502.939559,157.142857 500.644068,157.142857 C499.568915,157.142857 498.20339,155.772245 498.20339,153.469388 Z"></path>
            </g>
        </g>
    </g>
</svg>