<?xml version="1.0" encoding="UTF-8"?>
<svg width="84px" height="87px" viewBox="0 0 84 87" version="1.1" xmlns="http://www.w3.org/2000/svg" xmlns:xlink="http://www.w3.org/1999/xlink">
    <!-- Generator: Sketch 43 (38999) - http://www.bohemiancoding.com/sketch -->
    <title>Key</title>
    <desc>Created with Sketch.</desc>
    <defs>
        <rect id="path-1" x="0" y="0" width="84" height="85" rx="10"></rect>
        <filter x="-1.2%" y="-1.2%" width="102.4%" height="104.7%" filterUnits="objectBoundingBox" id="filter-2">
            <feOffset dx="0" dy="2" in="SourceAlpha" result="shadowOffsetOuter1"></feOffset>
            <feColorMatrix values="0 0 0 0 0   0 0 0 0 0   0 0 0 0 0  0 0 0 0.25 0" type="matrix" in="shadowOffsetOuter1"></feColorMatrix>
        </filter>
    </defs>
    <g id="Symbols" stroke="none" stroke-width="1" fill="none" fill-rule="evenodd">
        <g id="keyborad/zh" transform="translate(-6.000000, -318.000000)">
            <g id="中文键盘">
                <g>
                    <g id="Key" transform="translate(6.000000, 318.000000)">
                        <g>
                            <use fill="black" fill-opacity="1" filter="url(#filter-2)" xlink:href="#path-1"></use>
                            <use fill="#ABB2BA" fill-rule="evenodd" xlink:href="#path-1"></use>
                        </g>
                        <path d="M59.8228041,45.6828838 C60.9244017,45.6846038 61.180298,45.0525813 60.3989459,44.2712292 L43.6658773,27.5381606 C42.8798403,26.7521236 41.6161573,26.7583544 40.8328983,27.5416134 L24.1677276,44.2067841 C23.3762776,44.9982342 23.6408702,45.6263917 24.7404166,45.6281085 L33,45.6410044 L33,56.00077 C33,58.2075324 34.7885255,58 36.9947834,58 L47.0052166,58 C49.2082844,58 51,58.2094838 51,56.00077 L51,45.6691085 L59.8228041,45.6828838 Z" id="Path-2458" stroke="#000000" stroke-width="3"></path>
                    </g>
                </g>
            </g>
        </g>
    </g>
</svg>