<?xml version="1.0" encoding="UTF-8"?>
<svg width="84px" height="87px" viewBox="0 0 84 87" version="1.1" xmlns="http://www.w3.org/2000/svg" xmlns:xlink="http://www.w3.org/1999/xlink">
    <!-- Generator: Sketch 43 (38999) - http://www.bohemiancoding.com/sketch -->
    <title>Key</title>
    <desc>Created with Sketch.</desc>
    <defs>
        <rect id="path-1" x="0" y="0" width="84" height="85" rx="10"></rect>
        <filter x="-1.2%" y="-1.2%" width="102.4%" height="104.7%" filterUnits="objectBoundingBox" id="filter-2">
            <feOffset dx="0" dy="2" in="SourceAlpha" result="shadowOffsetOuter1"></feOffset>
            <feColorMatrix values="0 0 0 0 0   0 0 0 0 0   0 0 0 0 0  0 0 0 0.25 0" type="matrix" in="shadowOffsetOuter1"></feColorMatrix>
        </filter>
    </defs>
    <g id="Symbols" stroke="none" stroke-width="1" fill="none" fill-rule="evenodd">
        <g id="keyborad/zh" transform="translate(-98.000000, -421.000000)">
            <g id="中文键盘">
                <g>
                    <g id="Key" transform="translate(98.000000, 421.000000)">
                        <g>
                            <use fill="black" fill-opacity="1" filter="url(#filter-2)" xlink:href="#path-1"></use>
                            <use fill="#ABB2BA" fill-rule="evenodd" xlink:href="#path-1"></use>
                        </g>
                        <g id="Icon" transform="translate(22.000000, 23.000000)" fill="#000000">
                            <path d="M6.18750548,34.53692 C6.32155893,34.3849151 6.61076401,34.0944113 7.050317,33.7112023 C7.79660415,33.0605778 8.68441756,32.4073588 9.7087467,31.7966544 C12.6024142,30.0714518 15.9800363,29.026904 19.8193862,29.0004647 C23.6841046,28.9738507 27.151802,30.0698371 30.1736839,31.9160837 C31.2189397,32.5546924 32.1332455,33.2382605 32.9086392,33.9195851 C33.1775038,34.1558316 33.4089498,34.3739004 33.6020158,34.5678232 C33.7134827,34.6797848 33.784798,34.7557664 33.8150268,34.7897803 L35.3099732,33.4611965 C35.1135514,33.240179 34.7511941,32.8762136 34.2287788,32.4171766 C33.3702924,31.6628398 32.3643309,30.9107466 31.2163952,30.2094047 C27.8944858,28.1798535 24.0701356,26.9711449 19.8056138,27.0005121 C15.5894803,27.0295461 11.8693805,28.180007 8.68455996,30.0787948 C7.55311407,30.7533621 6.56929319,31.4772198 5.73602916,32.2036721 C5.22785144,32.6467091 4.87729368,32.9988412 4.68749452,33.2140568 L6.18750548,34.53692 L6.18750548,34.53692 Z" id="Shape" fill-rule="nonzero"></path>
                            <path d="M4.68749452,7.91143162 C4.87729368,8.12664722 5.22785144,8.47877923 5.73602916,8.92181631 C6.56929319,9.64826857 7.55311407,10.3721263 8.68455996,11.0466935 C11.8693805,12.9454814 15.5894803,14.0959423 19.8056138,14.1249763 C24.0701356,14.1543435 27.8944858,12.9456349 31.2163952,10.9160837 C32.3643309,10.2147418 33.3702924,9.46264857 34.2287788,8.70831183 C34.7511941,8.24927477 35.1135514,7.88530934 35.3099732,7.66429191 L33.8150268,6.33570809 C33.784798,6.36972199 33.7134827,6.44570362 33.6020158,6.55766517 C33.4089498,6.75158801 33.1775038,6.96965679 32.9086392,7.20590329 C32.1332455,7.88722789 31.2189397,8.57079603 30.1736839,9.20940469 C27.151802,11.0556513 23.6841046,12.1516377 19.8193862,12.1250237 C15.9800363,12.0985844 12.6024142,11.0540366 9.7087467,9.32883397 C8.68441756,8.71812962 7.79660415,8.06491054 7.050317,7.41428604 C6.61076401,7.03107706 6.32155893,6.74057325 6.18750548,6.58856838 L4.68749452,7.91143162 L4.68749452,7.91143162 Z" id="Shape" fill-rule="nonzero"></path>
                            <rect id="Rectangle-1207" x="19" y="2" width="2" height="37"></rect>
                            <rect id="Rectangle-1208" x="0" y="19" width="40" height="2"></rect>
                            <path d="M20.5238095,38 L20.5238095,38 C24.7101457,38 29,29.9349861 29,20 C29,10.0650139 24.7101457,2 20.5238095,2 C15.4139149,2 11,9.76973341 11,20 C11,30.2302666 15.4139149,38 20.5238095,38 L20.5238095,38 Z M20.5238095,40 L20.5238095,40 C13.9248678,40 9,31.045695 9,20 C9,8.954305 13.9248678,0 20.5238095,0 C26.0751322,0 31,8.954305 31,20 C31,31.045695 26.0751322,40 20.5238095,40 L20.5238095,40 Z" id="Shape" fill-rule="nonzero"></path>
                            <path d="M20,38 L20,38 C29.9411255,38 38,29.9411255 38,20 C38,10.0588745 29.9411255,2 20,2 C10.0588745,2 2,10.0588745 2,20 C2,29.9411255 10.0588745,38 20,38 L20,38 Z M20,40 L20,40 C8.954305,40 0,31.045695 0,20 C0,8.954305 8.954305,0 20,0 C31.045695,0 40,8.954305 40,20 C40,31.045695 31.045695,40 20,40 L20,40 Z" id="Shape" fill-rule="nonzero"></path>
                        </g>
                    </g>
                </g>
            </g>
        </g>
    </g>
</svg>