<?xml version="1.0" encoding="UTF-8"?>
<svg width="64px" height="87px" viewBox="0 0 64 87" version="1.1" xmlns="http://www.w3.org/2000/svg" xmlns:xlink="http://www.w3.org/1999/xlink">
    <!-- Generator: Sketch 43 (38999) - http://www.bohemiancoding.com/sketch -->
    <title>Key</title>
    <desc>Created with Sketch.</desc>
    <defs>
        <rect id="path-1" x="0" y="0" width="64" height="85" rx="10"></rect>
        <filter x="-1.6%" y="-1.2%" width="103.1%" height="104.7%" filterUnits="objectBoundingBox" id="filter-2">
            <feOffset dx="0" dy="2" in="SourceAlpha" result="shadowOffsetOuter1"></feOffset>
            <feColorMatrix values="0 0 0 0 0   0 0 0 0 0   0 0 0 0 0  0 0 0 0.25 0" type="matrix" in="shadowOffsetOuter1"></feColorMatrix>
        </filter>
    </defs>
    <g id="Symbols" stroke="none" stroke-width="1" fill="none" fill-rule="evenodd">
        <g id="keyborad/zh" transform="translate(-193.000000, -422.000000)">
            <g id="中文键盘">
                <g>
                    <g id="Key" transform="translate(193.000000, 422.000000)">
                        <g>
                            <use fill="black" fill-opacity="1" filter="url(#filter-2)" xlink:href="#path-1"></use>
                            <use fill="#FFFFFF" fill-rule="evenodd" xlink:href="#path-1"></use>
                        </g>
                        <g id="Icon" transform="translate(21.000000, 23.000000)">
                            <path d="M21,15.1221631 L21,21.9977156 C21,26.9693942 16.9693153,31 11.9978027,31 L10.0021973,31 C5.02939712,31 1,26.9692013 1,21.9921193 L1,15.0653449 L21,15.1221631 Z" id="Rectangle-1209" stroke="#000000" stroke-width="2"></path>
                            <path d="M6,6.99335474 L6,6.99335474 L6,21.0066453 C6,23.7643265 8.23792572,26 11,26 C13.757046,26 16,23.7609134 16,21.0066453 L16,6.99335474 C16,4.23567347 13.7620743,2 11,2 C8.242954,2 6,4.23908662 6,6.99335474 L6,6.99335474 Z M4,6.99335474 C4,3.13103157 7.14187327,0 11,0 C14.8659932,0 18,3.13045315 18,6.99335474 L18,21.0066453 C18,24.8689684 14.8581267,28 11,28 C7.13400675,28 4,24.8695469 4,21.0066453 L4,6.99335474 L4,6.99335474 Z" id="Shape" fill="#000000" fill-rule="nonzero"></path>
                            <polygon id="Shape" fill="#000000" fill-rule="nonzero" points="10 31 10 38.875992 12 38.875992 12 31"></polygon>
                            <polygon id="Shape" fill="#000000" fill-rule="nonzero" points="4 40 18 40 18 38 4 38"></polygon>
                        </g>
                    </g>
                </g>
            </g>
        </g>
    </g>
</svg>